<svg width="17" height="33" viewBox="0 0 17 33" fill="none" xmlns="http://www.w3.org/2000/svg">
<path d="M0 32.6348V26.834H4.55469V16.6289H0.257812V10.8281H11.6016V26.834H16.1562V32.6348H0ZM7.9707 8.89453C6.73893 8.89453 5.6862 8.45768 4.8125 7.58398C3.9388 6.71029 3.50195 5.65039 3.50195 4.4043C3.50195 3.20117 3.9388 2.16992 4.8125 1.31055C5.6862 0.436849 6.73893 0 7.9707 0C9.18815 0 10.2337 0.436849 11.1074 1.31055C11.9811 2.16992 12.418 3.20117 12.418 4.4043C12.418 5.65039 11.9811 6.71029 11.1074 7.58398C10.2337 8.45768 9.18815 8.89453 7.9707 8.89453Z" fill="#20455F"/>
</svg>
