<svg width="36" height="36" viewBox="0 0 36 36" fill="none" xmlns="http://www.w3.org/2000/svg">
<path d="M0 25.2167C0 23.0927 0 20.9959 0 18.8719C0 17.2381 0.58134 15.7677 1.6056 14.4606C1.85475 14.1611 2.1039 13.8887 2.38072 13.6164C6.50547 9.53185 10.6302 5.42003 14.755 1.33544C15.6685 0.436826 16.7481 -0.0260948 18.0215 0.00113578C19.2673 0.00113578 20.3192 0.491287 21.2051 1.36267C24.1671 4.30357 27.1292 7.24448 30.0913 10.1854C31.3093 11.3835 32.5273 12.5817 33.7454 13.8071C35.2126 15.2775 35.9877 17.0475 35.9877 19.117C35.9877 23.3105 36.0154 27.4768 35.9877 31.6703C35.9877 33.3042 35.1572 34.5568 33.7454 35.4009C33.0533 35.8094 32.2782 36 31.4477 36C29.4822 36 27.5167 36 25.5513 36C23.5027 36 21.7864 34.7746 21.1774 32.8413C21.039 32.4056 21.0113 31.9426 21.0113 31.4797C21.0113 29.0834 21.0113 26.6871 21.0113 24.2908C21.0113 23.2016 20.3746 22.6025 19.2949 22.6025C18.3814 22.6025 17.4679 22.6025 16.5543 22.6025C15.6685 22.6025 15.0041 23.2288 15.0041 24.1275C15.0041 26.551 15.0041 28.9745 15.0041 31.398C15.0041 32.4328 14.7273 33.4131 14.0629 34.23C13.177 35.3465 12.0144 35.9728 10.5748 36C8.52632 36 6.4501 36 4.40157 36C2.38072 36 0.470608 34.4751 0.110731 32.5145C2.47504e-08 31.9154 0 31.2891 0 30.6628C0 28.8656 0 27.0684 0 25.2439V25.2167Z" fill="#20455F"/>
</svg>
