<svg width="60" height="60" viewBox="0 0 60 60" fill="none" xmlns="http://www.w3.org/2000/svg">
<path d="M51.3099 0L52.0713 0.482064L59.5175 7.9282L59.9996 8.7144V9.91025L59.5258 10.7399L46.7086 23.5591L36.4424 13.2909L49.2637 0.47172L50.0685 0H51.3099Z" fill="#E66060"/>
<path d="M9.91031 60.0003H8.71239L7.92411 59.5182L0.479999 52.0721L0 51.3107V50.0693L0.471723 49.2645L13.2889 36.4453L23.5551 46.7114L10.74 59.5265L9.91031 60.0003Z" fill="#E66060"/>
<path d="M21.1295 51.0244L25.4288 46.6983L13.3171 34.5825L8.96606 38.8652C7.68331 37.8639 5.88538 35.708 7.22607 34.3136C8.76537 32.7143 10.2571 31.2039 11.8667 29.704C12.7295 28.9012 14.2274 29.4474 14.9391 30.1281C16.1991 31.3281 17.7984 33.2853 19.4578 31.6426L23.8253 27.3164C24.5039 26.644 25.8529 26.8695 26.5129 27.5316L32.4715 33.4901C33.1294 34.148 33.357 35.5011 32.6867 36.1777L28.3563 40.5494C26.7198 42.2025 28.6729 43.8038 29.8667 45.0555C30.6219 45.8459 31.0936 47.3707 30.2184 48.2458L25.6895 52.7768C25.0005 53.4679 23.5708 53.2837 22.8633 52.6941C22.226 52.1624 21.7212 51.6451 21.1295 51.0265V51.0244ZM24.7543 38.6501L29.3143 34.0425L25.9253 30.6867L21.355 35.2632L24.7543 38.6501Z" fill="#E66060"/>
<path d="M50.707 23.5424L43.9725 34.4333C43.3208 35.4864 41.6388 36.0244 40.6581 35.0437L24.9547 19.3445C24.0567 18.4466 24.4312 16.7459 25.4471 16.117L36.4002 9.32876C37.0933 8.90049 37.8733 8.73084 38.8291 8.98325L34.5857 13.3239L46.6932 25.4272L51.0111 21.1735C51.2574 22.0569 51.1498 22.8307 50.707 23.5445V23.5424ZM41.0388 29.0334L42.5284 27.5624C42.7705 27.161 42.7912 26.6334 42.5098 26.1927L33.8057 17.4908C33.3671 17.2073 32.8415 17.228 32.434 17.4701L30.9422 19.0011C30.5802 19.3735 30.6609 20.0914 31.0436 20.4762L39.6298 29.0562C39.9588 29.3851 40.7264 29.3417 41.0388 29.0355V29.0334Z" fill="#E66060"/>
</svg>
